<svg xmlns="http://www.w3.org/2000/svg" viewBox="0 0 18 19" width="18" height="19">
	<style>
		tspan { white-space:pre }
		.shp0 { fill: #d1d1d1 } 
	</style>
	<g id="Form">
		<g id="Form Body">
			<g id="User Name">
				<path id="User" class="shp0" d="M7.87 2.23C7.35 2.23 7.43 2.46 7.15 2.5C6.87 2.53 7.2 2.38 6.36 2.54C5.52 2.7 5.22 3.77 5.18 4.16C5.14 4.56 5.13 5.66 5.16 6.26C5.24 6.61 4.96 6.61 4.96 6.61C4.45 6.58 4.68 8.13 4.68 8.13C4.75 8.51 4.65 8.7 5.4 8.99C5.76 9.99 6.69 10.52 6.69 10.52C6.69 10.52 6.69 11.14 6.7 11.59C6.63 11.55 6.96 12.76 4.64 13.09C2.32 13.43 1.88 14.17 1.44 14.58C1 15 1.02 16.99 1.02 16.99L16 17C16 17 15.89 15 15.45 14.58C15.01 14.17 14.54 13.43 12.22 13.09C9.96 12.77 10.33 11.59 10.31 11.52C10.32 11.34 10.34 10.58 10.34 10.58C10.34 10.58 11.13 9.96 11.49 8.97C12.05 8.62 12.26 8.57 12.35 8.17C12.35 8.17 12.52 6.6 11.99 6.61C11.99 6.61 11.74 6.69 11.82 6.34C11.9 5.98 11.87 4.87 11.83 4.48C11.79 4.08 11.85 2.95 11.01 2.8C10.44 2.69 10.36 2.79 10.08 2.75C9.8 2.72 9.46 2 8.94 2L7.87 2.23Z" />
			</g>
		</g>
	</g>
</svg>